<svg id="visual" viewBox="0 0 900 450" width="900" height="450" xmlns="http://www.w3.org/2000/svg" xmlns:xlink="http://www.w3.org/1999/xlink" version="1.1"><path d="M0 89L39 89L39 124L78 124L78 116L117 116L117 104L157 104L157 114L196 114L196 90L235 90L235 89L274 89L274 98L313 98L313 104L352 104L352 103L391 103L391 92L430 92L430 113L470 113L470 106L509 106L509 126L548 126L548 119L587 119L587 119L626 119L626 102L665 102L665 124L704 124L704 119L743 119L743 91L783 91L783 86L822 86L822 90L861 90L861 119L900 119L900 112L900 0L900 0L861 0L861 0L822 0L822 0L783 0L783 0L743 0L743 0L704 0L704 0L665 0L665 0L626 0L626 0L587 0L587 0L548 0L548 0L509 0L509 0L470 0L470 0L430 0L430 0L391 0L391 0L352 0L352 0L313 0L313 0L274 0L274 0L235 0L235 0L196 0L196 0L157 0L157 0L117 0L117 0L78 0L78 0L39 0L39 0L0 0Z" fill="#fafaf9"></path><path d="M0 70L39 70L39 72L78 72L78 75L117 75L117 85L157 85L157 82L196 82L196 69L235 69L235 72L274 72L274 75L313 75L313 65L352 65L352 99L391 99L391 100L430 100L430 72L470 72L470 78L509 78L509 87L548 87L548 88L587 88L587 78L626 78L626 99L665 99L665 73L704 73L704 68L743 68L743 99L783 99L783 94L822 94L822 74L861 74L861 68L900 68L900 78L900 0L900 0L861 0L861 0L822 0L822 0L783 0L783 0L743 0L743 0L704 0L704 0L665 0L665 0L626 0L626 0L587 0L587 0L548 0L548 0L509 0L509 0L470 0L470 0L430 0L430 0L391 0L391 0L352 0L352 0L313 0L313 0L274 0L274 0L235 0L235 0L196 0L196 0L157 0L157 0L117 0L117 0L78 0L78 0L39 0L39 0L0 0Z" fill="#f3f3f2"></path><path d="M0 68L39 68L39 49L78 49L78 65L117 65L117 73L157 73L157 53L196 53L196 64L235 64L235 44L274 44L274 65L313 65L313 69L352 69L352 48L391 48L391 53L430 53L430 71L470 71L470 48L509 48L509 53L548 53L548 71L587 71L587 60L626 60L626 53L665 53L665 65L704 65L704 45L743 45L743 47L783 47L783 60L822 60L822 55L861 55L861 59L900 59L900 54L900 0L900 0L861 0L861 0L822 0L822 0L783 0L783 0L743 0L743 0L704 0L704 0L665 0L665 0L626 0L626 0L587 0L587 0L548 0L548 0L509 0L509 0L470 0L470 0L430 0L430 0L391 0L391 0L352 0L352 0L313 0L313 0L274 0L274 0L235 0L235 0L196 0L196 0L157 0L157 0L117 0L117 0L78 0L78 0L39 0L39 0L0 0Z" fill="#edeceb"></path><path d="M0 45L39 45L39 36L78 36L78 42L117 42L117 42L157 42L157 30L196 30L196 27L235 27L235 27L274 27L274 28L313 28L313 33L352 33L352 40L391 40L391 36L430 36L430 46L470 46L470 34L509 34L509 40L548 40L548 29L587 29L587 36L626 36L626 40L665 40L665 45L704 45L704 30L743 30L743 45L783 45L783 40L822 40L822 25L861 25L861 28L900 28L900 41L900 0L900 0L861 0L861 0L822 0L822 0L783 0L783 0L743 0L743 0L704 0L704 0L665 0L665 0L626 0L626 0L587 0L587 0L548 0L548 0L509 0L509 0L470 0L470 0L430 0L430 0L391 0L391 0L352 0L352 0L313 0L313 0L274 0L274 0L235 0L235 0L196 0L196 0L157 0L157 0L117 0L117 0L78 0L78 0L39 0L39 0L0 0Z" fill="#e7e5e4"></path></svg>