<svg id="visual" viewBox="0 0 1500 900" width="1500" height="900" xmlns="http://www.w3.org/2000/svg"
    xmlns:xlink="http://www.w3.org/1999/xlink" version="1.1">
    <path
        d="M0 276L107 276L107 318L214 318L214 287L321 287L321 368L429 368L429 377L536 377L536 415L643 415L643 409L750 409L750 370L857 370L857 378L964 378L964 403L1071 403L1071 389L1179 389L1179 292L1286 292L1286 294L1393 294L1393 426L1500 426L1500 268L1500 901L1500 901L1393 901L1393 901L1286 901L1286 901L1179 901L1179 901L1071 901L1071 901L964 901L964 901L857 901L857 901L750 901L750 901L643 901L643 901L536 901L536 901L429 901L429 901L321 901L321 901L214 901L214 901L107 901L107 901L0 901Z"
        fill="#03071299"></path>
    <path
        d="M0 429L107 429L107 590L214 590L214 573L321 573L321 537L429 537L429 603L536 603L536 482L643 482L643 579L750 579L750 589L857 589L857 592L964 592L964 533L1071 533L1071 503L1179 503L1179 601L1286 601L1286 481L1393 481L1393 545L1500 545L1500 600L1500 901L1500 901L1393 901L1393 901L1286 901L1286 901L1179 901L1179 901L1071 901L1071 901L964 901L964 901L857 901L857 901L750 901L750 901L643 901L643 901L536 901L536 901L429 901L429 901L321 901L321 901L214 901L214 901L107 901L107 901L0 901Z"
        fill="#0c111db3"></path>
    <path
        d="M0 640L107 640L107 746L214 746L214 734L321 734L321 678L429 678L429 770L536 770L536 770L643 770L643 650L750 650L750 739L857 739L857 689L964 689L964 664L1071 664L1071 754L1179 754L1179 726L1286 726L1286 645L1393 645L1393 772L1500 772L1500 706L1500 901L1500 901L1393 901L1393 901L1286 901L1286 901L1179 901L1179 901L1071 901L1071 901L964 901L964 901L857 901L857 901L750 901L750 901L643 901L643 901L536 901L536 901L429 901L429 901L321 901L321 901L214 901L214 901L107 901L107 901L0 901Z"
        fill="#111827"></path>
</svg>
