<svg id="visual" viewBox="0 0 900 900" width="900" height="900" xmlns="http://www.w3.org/2000/svg" xmlns:xlink="http://www.w3.org/1999/xlink" version="1.1"><path d="M0 502L69 502L69 550L138 550L138 553L208 553L208 486L277 486L277 578L346 578L346 464L415 464L415 443L485 443L485 432L554 432L554 496L623 496L623 544L692 544L692 430L762 430L762 540L831 540L831 459L900 459L900 449L900 0L900 0L831 0L831 0L762 0L762 0L692 0L692 0L623 0L623 0L554 0L554 0L485 0L485 0L415 0L415 0L346 0L346 0L277 0L277 0L208 0L208 0L138 0L138 0L69 0L69 0L0 0Z" fill="#fafaf9"></path><path d="M0 330L69 330L69 345L138 345L138 452L208 452L208 355L277 355L277 399L346 399L346 366L415 366L415 417L485 417L485 421L554 421L554 313L623 313L623 367L692 367L692 454L762 454L762 404L831 404L831 441L900 441L900 399L900 0L900 0L831 0L831 0L762 0L762 0L692 0L692 0L623 0L623 0L554 0L554 0L485 0L485 0L415 0L415 0L346 0L346 0L277 0L277 0L208 0L208 0L138 0L138 0L69 0L69 0L0 0Z" fill="#f3f3f2"></path><path d="M0 253L69 253L69 274L138 274L138 235L208 235L208 328L277 328L277 325L346 325L346 222L415 222L415 203L485 203L485 284L554 284L554 267L623 267L623 317L692 317L692 286L762 286L762 262L831 262L831 268L900 268L900 211L900 0L900 0L831 0L831 0L762 0L762 0L692 0L692 0L623 0L623 0L554 0L554 0L485 0L485 0L415 0L415 0L346 0L346 0L277 0L277 0L208 0L208 0L138 0L138 0L69 0L69 0L0 0Z" fill="#edeceb"></path><path d="M0 168L69 168L69 111L138 111L138 178L208 178L208 190L277 190L277 170L346 170L346 177L415 177L415 103L485 103L485 192L554 192L554 146L623 146L623 159L692 159L692 155L762 155L762 181L831 181L831 200L900 200L900 130L900 0L900 0L831 0L831 0L762 0L762 0L692 0L692 0L623 0L623 0L554 0L554 0L485 0L485 0L415 0L415 0L346 0L346 0L277 0L277 0L208 0L208 0L138 0L138 0L69 0L69 0L0 0Z" fill="#e7e5e4"></path></svg>