<svg id="visual" viewBox="0 0 900 450" width="900" height="450" xmlns="http://www.w3.org/2000/svg" xmlns:xlink="http://www.w3.org/1999/xlink" version="1.1"><path d="M0 232L39 232L39 233L78 233L78 211L117 211L117 211L157 211L157 217L196 217L196 216L235 216L235 214L274 214L274 233L313 233L313 218L352 218L352 226L391 226L391 209L430 209L430 213L470 213L470 211L509 211L509 226L548 226L548 225L587 225L587 219L626 219L626 235L665 235L665 222L704 222L704 232L743 232L743 221L783 221L783 216L822 216L822 215L861 215L861 220L900 220L900 219L900 0L900 0L861 0L861 0L822 0L822 0L783 0L783 0L743 0L743 0L704 0L704 0L665 0L665 0L626 0L626 0L587 0L587 0L548 0L548 0L509 0L509 0L470 0L470 0L430 0L430 0L391 0L391 0L352 0L352 0L313 0L313 0L274 0L274 0L235 0L235 0L196 0L196 0L157 0L157 0L117 0L117 0L78 0L78 0L39 0L39 0L0 0Z" fill="#fafaf9"></path><path d="M0 180L39 180L39 180L78 180L78 186L117 186L117 183L157 183L157 192L196 192L196 196L235 196L235 192L274 192L274 178L313 178L313 186L352 186L352 174L391 174L391 176L430 176L430 177L470 177L470 177L509 177L509 174L548 174L548 183L587 183L587 193L626 193L626 176L665 176L665 173L704 173L704 193L743 193L743 174L783 174L783 194L822 194L822 193L861 193L861 172L900 172L900 190L900 0L900 0L861 0L861 0L822 0L822 0L783 0L783 0L743 0L743 0L704 0L704 0L665 0L665 0L626 0L626 0L587 0L587 0L548 0L548 0L509 0L509 0L470 0L470 0L430 0L430 0L391 0L391 0L352 0L352 0L313 0L313 0L274 0L274 0L235 0L235 0L196 0L196 0L157 0L157 0L117 0L117 0L78 0L78 0L39 0L39 0L0 0Z" fill="#f0efee"></path><path d="M0 147L39 147L39 157L78 157L78 138L117 138L117 160L157 160L157 144L196 144L196 157L235 157L235 141L274 141L274 149L313 149L313 136L352 136L352 152L391 152L391 160L430 160L430 158L470 158L470 151L509 151L509 139L548 139L548 144L587 144L587 149L626 149L626 140L665 140L665 155L704 155L704 148L743 148L743 153L783 153L783 149L822 149L822 143L861 143L861 138L900 138L900 139L900 0L900 0L861 0L861 0L822 0L822 0L783 0L783 0L743 0L743 0L704 0L704 0L665 0L665 0L626 0L626 0L587 0L587 0L548 0L548 0L509 0L509 0L470 0L470 0L430 0L430 0L391 0L391 0L352 0L352 0L313 0L313 0L274 0L274 0L235 0L235 0L196 0L196 0L157 0L157 0L117 0L117 0L78 0L78 0L39 0L39 0L0 0Z" fill="#e7e5e4"></path><path d="M0 116L39 116L39 120L78 120L78 105L117 105L117 109L157 109L157 110L196 110L196 119L235 119L235 106L274 106L274 98L313 98L313 121L352 121L352 118L391 118L391 104L430 104L430 120L470 120L470 110L509 110L509 108L548 108L548 110L587 110L587 117L626 117L626 116L665 116L665 105L704 105L704 118L743 118L743 120L783 120L783 116L822 116L822 120L861 120L861 103L900 103L900 106L900 0L900 0L861 0L861 0L822 0L822 0L783 0L783 0L743 0L743 0L704 0L704 0L665 0L665 0L626 0L626 0L587 0L587 0L548 0L548 0L509 0L509 0L470 0L470 0L430 0L430 0L391 0L391 0L352 0L352 0L313 0L313 0L274 0L274 0L235 0L235 0L196 0L196 0L157 0L157 0L117 0L117 0L78 0L78 0L39 0L39 0L0 0Z" fill="#e7e5e4"></path><path d="M0 69L39 69L39 77L78 77L78 76L117 76L117 80L157 80L157 71L196 71L196 68L235 68L235 75L274 75L274 79L313 79L313 63L352 63L352 63L391 63L391 69L430 69L430 84L470 84L470 70L509 70L509 73L548 73L548 66L587 66L587 71L626 71L626 68L665 68L665 63L704 63L704 82L743 82L743 71L783 71L783 65L822 65L822 71L861 71L861 80L900 80L900 75L900 0L900 0L861 0L861 0L822 0L822 0L783 0L783 0L743 0L743 0L704 0L704 0L665 0L665 0L626 0L626 0L587 0L587 0L548 0L548 0L509 0L509 0L470 0L470 0L430 0L430 0L391 0L391 0L352 0L352 0L313 0L313 0L274 0L274 0L235 0L235 0L196 0L196 0L157 0L157 0L117 0L117 0L78 0L78 0L39 0L39 0L0 0Z" fill="#f0efee"></path><path d="M0 29L39 29L39 42L78 42L78 26L117 26L117 41L157 41L157 29L196 29L196 45L235 45L235 26L274 26L274 34L313 34L313 35L352 35L352 33L391 33L391 42L430 42L430 31L470 31L470 40L509 40L509 33L548 33L548 45L587 45L587 30L626 30L626 31L665 31L665 42L704 42L704 45L743 45L743 33L783 33L783 45L822 45L822 34L861 34L861 27L900 27L900 34L900 0L900 0L861 0L861 0L822 0L822 0L783 0L783 0L743 0L743 0L704 0L704 0L665 0L665 0L626 0L626 0L587 0L587 0L548 0L548 0L509 0L509 0L470 0L470 0L430 0L430 0L391 0L391 0L352 0L352 0L313 0L313 0L274 0L274 0L235 0L235 0L196 0L196 0L157 0L157 0L117 0L117 0L78 0L78 0L39 0L39 0L0 0Z" fill="#fafaf9"></path></svg>