<svg id="visual" viewBox="0 0 900 450" width="900" height="450" xmlns="http://www.w3.org/2000/svg" xmlns:xlink="http://www.w3.org/1999/xlink" version="1.1"><path d="M0 73L43 73L43 103L86 103L86 87L129 87L129 68L171 68L171 68L214 68L214 77L257 77L257 115L300 115L300 80L343 80L343 106L386 106L386 85L429 85L429 84L471 84L471 80L514 80L514 90L557 90L557 110L600 110L600 114L643 114L643 70L686 70L686 77L729 77L729 110L771 110L771 111L814 111L814 108L857 108L857 109L900 109L900 83L900 0L900 0L857 0L857 0L814 0L814 0L771 0L771 0L729 0L729 0L686 0L686 0L643 0L643 0L600 0L600 0L557 0L557 0L514 0L514 0L471 0L471 0L429 0L429 0L386 0L386 0L343 0L343 0L300 0L300 0L257 0L257 0L214 0L214 0L171 0L171 0L129 0L129 0L86 0L86 0L43 0L43 0L0 0Z" fill="#e7e5e4"></path></svg>
