<svg id="visual" viewBox="0 0 1920 565" width="1920" height="565" xmlns="http://www.w3.org/2000/svg"
    xmlns:xlink="http://www.w3.org/1999/xlink" version="1.1">
    <rect x="0" y="0" width="1920" height="565" fill="#FF9F1C99"></rect>
    <path
        d="M0 482L83 482L83 460L167 460L167 460L250 460L250 490L334 490L334 461L417 461L417 473L501 473L501 472L584 472L584 475L668 475L668 488L751 488L751 477L835 477L835 504L918 504L918 467L1002 467L1002 496L1085 496L1085 493L1169 493L1169 480L1252 480L1252 504L1336 504L1336 462L1419 462L1419 504L1503 504L1503 464L1586 464L1586 495L1670 495L1670 500L1753 500L1753 492L1837 492L1837 479L1920 479L1920 458L1920 566L1920 566L1837 566L1837 566L1753 566L1753 566L1670 566L1670 566L1586 566L1586 566L1503 566L1503 566L1419 566L1419 566L1336 566L1336 566L1252 566L1252 566L1169 566L1169 566L1085 566L1085 566L1002 566L1002 566L918 566L918 566L835 566L835 566L751 566L751 566L668 566L668 566L584 566L584 566L501 566L501 566L417 566L417 566L334 566L334 566L250 566L250 566L167 566L167 566L83 566L83 566L0 566Z"
        fill="#fffcf8"></path>
</svg>
