<svg id="visual" viewBox="0 0 1920 565" width="1920" height="565" xmlns="http://www.w3.org/2000/svg"
    xmlns:xlink="http://www.w3.org/1999/xlink" version="1.1">
    <rect x="0" y="0" width="1920" height="565" fill="#FF9F1C99"></rect>
    <path
        d="M0 388L274 388L274 414L549 414L549 412L823 412L823 423L1097 423L1097 370L1371 370L1371 425L1646 425L1646 396L1920 396L1920 422L1920 566L1920 566L1646 566L1646 566L1371 566L1371 566L1097 566L1097 566L823 566L823 566L549 566L549 566L274 566L274 566L0 566Z"
        fill="#ff9f1c00"></path>
    <path
        d="M0 438L274 438L274 416L549 416L549 428L823 428L823 430L1097 430L1097 422L1371 422L1371 404L1646 404L1646 419L1920 419L1920 407L1920 566L1920 566L1646 566L1646 566L1371 566L1371 566L1097 566L1097 566L823 566L823 566L549 566L549 566L274 566L274 566L0 566Z"
        fill="#ff9f1c99"></path>
    <path
        d="M0 476L274 476L274 443L549 443L549 466L823 466L823 452L1097 452L1097 459L1371 459L1371 483L1646 483L1646 451L1920 451L1920 477L1920 566L1920 566L1646 566L1646 566L1371 566L1371 566L1097 566L1097 566L823 566L823 566L549 566L549 566L274 566L274 566L0 566Z"
        fill="#ffb85a"></path>
    <path
        d="M0 502L274 502L274 514L549 514L549 489L823 489L823 501L1097 501L1097 506L1371 506L1371 477L1646 477L1646 504L1920 504L1920 476L1920 566L1920 566L1646 566L1646 566L1371 566L1371 566L1097 566L1097 566L823 566L823 566L549 566L549 566L274 566L274 566L0 566Z"
        fill="#ffe6c2"></path>
    <path
        d="M0 521L274 521L274 529L549 529L549 539L823 539L823 509L1097 509L1097 531L1371 531L1371 538L1646 538L1646 526L1920 526L1920 525L1920 566L1920 566L1646 566L1646 566L1371 566L1371 566L1097 566L1097 566L823 566L823 566L549 566L549 566L274 566L274 566L0 566Z"
        fill="#fffcf8"></path>
</svg>
