<svg id="visual" viewBox="0 0 1920 200" width="1920" height="200" xmlns="http://www.w3.org/2000/svg" xmlns:xlink="http://www.w3.org/1999/xlink" version="1.1"><path d="M0 67L83 67L83 53L167 53L167 69L250 69L250 45L334 45L334 57L417 57L417 71L501 71L501 59L584 59L584 73L668 73L668 63L751 63L751 59L835 59L835 43L918 43L918 61L1002 61L1002 53L1085 53L1085 65L1169 65L1169 53L1252 53L1252 59L1336 59L1336 49L1419 49L1419 69L1503 69L1503 65L1586 65L1586 69L1670 69L1670 69L1753 69L1753 59L1837 59L1837 43L1920 43L1920 63L1920 0L1920 0L1837 0L1837 0L1753 0L1753 0L1670 0L1670 0L1586 0L1586 0L1503 0L1503 0L1419 0L1419 0L1336 0L1336 0L1252 0L1252 0L1169 0L1169 0L1085 0L1085 0L1002 0L1002 0L918 0L918 0L835 0L835 0L751 0L751 0L668 0L668 0L584 0L584 0L501 0L501 0L417 0L417 0L334 0L334 0L250 0L250 0L167 0L167 0L83 0L83 0L0 0Z" fill="#fffcf8"></path><path d="M0 115L83 115L83 89L167 89L167 109L250 109L250 89L334 89L334 97L417 97L417 103L501 103L501 101L584 101L584 117L668 117L668 89L751 89L751 105L835 105L835 85L918 85L918 85L1002 85L1002 91L1085 91L1085 95L1169 95L1169 97L1252 97L1252 85L1336 85L1336 97L1419 97L1419 101L1503 101L1503 97L1586 97L1586 111L1670 111L1670 113L1753 113L1753 95L1837 95L1837 85L1920 85L1920 93L1920 61L1920 41L1837 41L1837 57L1753 57L1753 67L1670 67L1670 67L1586 67L1586 63L1503 63L1503 67L1419 67L1419 47L1336 47L1336 57L1252 57L1252 51L1169 51L1169 63L1085 63L1085 51L1002 51L1002 59L918 59L918 41L835 41L835 57L751 57L751 61L668 61L668 71L584 71L584 57L501 57L501 69L417 69L417 55L334 55L334 43L250 43L250 67L167 67L167 51L83 51L83 65L0 65Z" fill="#ffecd0"></path><path d="M0 139L83 139L83 121L167 121L167 129L250 129L250 123L334 123L334 131L417 131L417 121L501 121L501 137L584 137L584 137L668 137L668 117L751 117L751 123L835 123L835 121L918 121L918 111L1002 111L1002 125L1085 125L1085 129L1169 129L1169 119L1252 119L1252 119L1336 119L1336 125L1419 125L1419 127L1503 127L1503 117L1586 117L1586 131L1670 131L1670 139L1753 139L1753 115L1837 115L1837 119L1920 119L1920 113L1920 91L1920 83L1837 83L1837 93L1753 93L1753 111L1670 111L1670 109L1586 109L1586 95L1503 95L1503 99L1419 99L1419 95L1336 95L1336 83L1252 83L1252 95L1169 95L1169 93L1085 93L1085 89L1002 89L1002 83L918 83L918 83L835 83L835 103L751 103L751 87L668 87L668 115L584 115L584 99L501 99L501 101L417 101L417 95L334 95L334 87L250 87L250 107L167 107L167 87L83 87L83 113L0 113Z" fill="#ffdba8"></path><path d="M0 185L83 185L83 179L167 179L167 171L250 171L250 179L334 179L334 179L417 179L417 171L501 171L501 179L584 179L584 181L668 181L668 177L751 177L751 171L835 171L835 181L918 181L918 171L1002 171L1002 179L1085 179L1085 181L1169 181L1169 181L1252 181L1252 173L1336 173L1336 185L1419 185L1419 173L1503 173L1503 185L1586 185L1586 183L1670 183L1670 183L1753 183L1753 183L1837 183L1837 177L1920 177L1920 171L1920 111L1920 117L1837 117L1837 113L1753 113L1753 137L1670 137L1670 129L1586 129L1586 115L1503 115L1503 125L1419 125L1419 123L1336 123L1336 117L1252 117L1252 117L1169 117L1169 127L1085 127L1085 123L1002 123L1002 109L918 109L918 119L835 119L835 121L751 121L751 115L668 115L668 135L584 135L584 135L501 135L501 119L417 119L417 129L334 129L334 121L250 121L250 127L167 127L167 119L83 119L83 137L0 137Z" fill="#ffca81"></path><path d="M0 201L83 201L83 201L167 201L167 201L250 201L250 201L334 201L334 201L417 201L417 201L501 201L501 201L584 201L584 201L668 201L668 201L751 201L751 201L835 201L835 201L918 201L918 201L1002 201L1002 201L1085 201L1085 201L1169 201L1169 201L1252 201L1252 201L1336 201L1336 201L1419 201L1419 201L1503 201L1503 201L1586 201L1586 201L1670 201L1670 201L1753 201L1753 201L1837 201L1837 201L1920 201L1920 201L1920 169L1920 175L1837 175L1837 181L1753 181L1753 181L1670 181L1670 181L1586 181L1586 183L1503 183L1503 171L1419 171L1419 183L1336 183L1336 171L1252 171L1252 179L1169 179L1169 179L1085 179L1085 177L1002 177L1002 169L918 169L918 179L835 179L835 169L751 169L751 175L668 175L668 179L584 179L584 177L501 177L501 169L417 169L417 177L334 177L334 177L250 177L250 169L167 169L167 177L83 177L83 183L0 183Z" fill="#ffb85a"></path></svg>