<svg id="visual" viewBox="0 0 1920 200" width="1920" height="200" xmlns="http://www.w3.org/2000/svg"
    xmlns:xlink="http://www.w3.org/1999/xlink" version="1.1">
    <path
        d="M0 71L274 71L274 17L549 17L549 39L823 39L823 63L1097 63L1097 57L1371 57L1371 31L1646 31L1646 19L1920 19L1920 39L1920 0L1920 0L1646 0L1646 0L1371 0L1371 0L1097 0L1097 0L823 0L823 0L549 0L549 0L274 0L274 0L0 0Z"
        fill="#fffcf8"></path>
    <path
        d="M0 85L274 85L274 57L549 57L549 77L823 77L823 77L1097 77L1097 83L1371 83L1371 59L1646 59L1646 59L1920 59L1920 81L1920 37L1920 17L1646 17L1646 29L1371 29L1371 55L1097 55L1097 61L823 61L823 37L549 37L549 15L274 15L274 69L0 69Z"
        fill="#fff1dd"></path>
    <path
        d="M0 107L274 107L274 125L549 125L549 143L823 143L823 117L1097 117L1097 141L1371 141L1371 143L1646 143L1646 133L1920 133L1920 155L1920 79L1920 57L1646 57L1646 57L1371 57L1371 81L1097 81L1097 75L823 75L823 75L549 75L549 55L274 55L274 83L0 83Z"
        fill="#ffe6c2"></path>
    <path
        d="M0 163L274 163L274 163L549 163L549 175L823 175L823 179L1097 179L1097 189L1371 189L1371 163L1646 163L1646 177L1920 177L1920 175L1920 153L1920 131L1646 131L1646 141L1371 141L1371 139L1097 139L1097 115L823 115L823 141L549 141L549 123L274 123L274 105L0 105Z"
        fill="#ffd08e"></path>
    <path
        d="M0 201L274 201L274 201L549 201L549 201L823 201L823 201L1097 201L1097 201L1371 201L1371 201L1646 201L1646 201L1920 201L1920 201L1920 173L1920 175L1646 175L1646 161L1371 161L1371 187L1097 187L1097 177L823 177L823 173L549 173L549 161L274 161L274 161L0 161Z"
        fill="#ffb85a"></path>
</svg>
